# xmcd
#
# Track frame offsets: 
#        150
#        10154
#        47112
#        66212
#        85762
#        102172
#        112368
#        125502
#        145621
#        160190
#        175146
#        190743
#        209279
#        228794
#        244088
#        263920
#        279896
#        298748
#        311461
#        324351
#
# Disc length: 4513 seconds
#
# Revision: 0
# Processed by: cddbd v1.5.1PL2 Copyright (c) Steve Scherf et al.
# Submitted via: ExactAudioCopy v0.95b4
#
DISCID=16119f14
DTITLE=Various Artist - Jaanju riita shlaagerdziesmas
DYEAR=2006
DGENRE=Country
TTITLE0=Rita Trence - Sievas nedzeriet alu
TTITLE1=Kaarlis Aargalis - Ligo zinges
TTITLE2=Judiite Dzilna - Izbruveju saldu alu
TTITLE3=Mikjelis Gruziitis - Udensrozes
TTITLE4=Maariite Krisha - Ligo mana Kurzenite
TTITLE5=Juulijs - Alus polka
TTITLE6=Rita Trence - Ligo nakti
TTITLE7=Kaarkis Aargalis - Alus valsis
TTITLE8=Ilziite - Gaujmalas krastos
TTITLE9=Uldis Stabulnieks - Ligo pie Usmas
TTITLE10=Heinrihs Kalviitis - Neviens to nepateiks
TTITLE11=Kompromiss - Abolina vainags
TTITLE12=Rita Trence - Januzales
TTITLE13=Vladislavs Juhnjeevics - Gaidi mani Janos
TTITLE14=Margarita Vilcaane - Vasara Kurzeme
TTITLE15=Andris Danjilenko - Tumsa nakte zala zale
TTITLE16=Heinriks Kalviitis - Lauj davinat so ziedu
TTITLE17=Epsilons - Ligo Jugla
TTITLE18=Aivars Shits - Dziesmota Riga
TTITLE19=Heinrihs Kalviitis - Vecie Krogi
EXTD=
EXTT0=
EXTT1=
EXTT2=
EXTT3=
EXTT4=
EXTT5=
EXTT6=
EXTT7=
EXTT8=
EXTT9=
EXTT10=
EXTT11=
EXTT12=
EXTT13=
EXTT14=
EXTT15=
EXTT16=
EXTT17=
EXTT18=
EXTT19=
PLAYORDER=
